<?xml version="1.0" encoding="utf-8"?>
<svg width="22.113281px" height="34.833008px" viewBox="0 0 22.113281 34.833008" version="1.1" xmlns:xlink="http://www.w3.org/1999/xlink" xmlns="http://www.w3.org/2000/svg">
  <g id="Icon--Interactive--Location" transform="translate(-11.056641 -5.5)">
    <path d="M22.1151 21.7325C24.9311 21.7407 27.2336 19.4618 27.2315 16.6683C27.229 13.8838 24.9577 11.6295 22.1428 11.6184C19.311 11.607 17.0203 13.8559 17.0093 16.6582C16.9983 19.4488 19.2877 21.7243 22.1151 21.7325L22.1151 21.7325ZM22.8087 5.5C23.5614 5.63402 24.3291 5.71417 25.0643 5.91189C27.7773 6.64146 29.9037 8.19772 31.4214 10.5308C33.29 13.4037 33.5631 16.5019 32.7006 19.762C31.9316 22.6683 30.7509 25.4111 29.4309 28.1033C27.4149 32.2155 25.0825 36.1505 22.5869 39.9937C22.2983 40.4382 22.0255 40.4467 21.7169 40.0173C18.3922 35.3888 15.4213 30.5574 13.2106 25.3026C12.2147 22.9358 11.4408 20.4998 11.1387 17.9339C10.545 12.8909 13.2028 8.32936 17.8111 6.36332C18.8793 5.90764 20.0003 5.63455 21.1651 5.55149C21.2548 5.54512 21.3432 5.51778 21.432 5.5L22.8087 5.5Z" id="Fill-1" fill="#BB753A" fill-rule="evenodd" stroke="none" />
  </g>
</svg>