<?xml version="1.0" encoding="utf-8"?>
<svg width="32px" height="50.666748px" viewBox="0 0 32 50.666748" version="1.1" xmlns:xlink="http://www.w3.org/1999/xlink" xmlns="http://www.w3.org/2000/svg">
  <g id="Icon--Interactive--Location" transform="translate(-16 -8)">
    <path d="M32.0034 31.6109C36.0784 31.6229 39.4104 28.3081 39.4073 24.2448C39.4038 20.1946 36.1168 16.9157 32.0434 16.8995C27.9455 16.8829 24.6305 20.154 24.6146 24.2301C24.5986 28.2892 27.9117 31.599 32.0034 31.6109L32.0034 31.6109ZM33.0071 8C34.0962 8.19494 35.2072 8.31152 36.2711 8.59911C40.1973 9.6603 43.2744 11.924 45.4706 15.3175C48.1748 19.4963 48.5699 24.0027 47.3218 28.7447C46.2089 32.9721 44.5004 36.9616 42.5901 40.8775C39.6727 46.859 36.2975 52.5826 32.6861 58.1726C32.2684 58.8192 31.8736 58.8316 31.4271 58.207C26.6157 51.4747 22.3165 44.4471 19.1174 36.8038C17.6762 33.3612 16.5563 29.8178 16.1191 26.0857C15.26 18.7505 19.1061 12.1154 25.7749 9.25574C27.3206 8.59294 28.9429 8.19571 30.6286 8.07489C30.7584 8.06562 30.8862 8.02586 31.0148 8L33.0071 8Z" id="Fill-1" fill="#BB753A" fill-rule="evenodd" stroke="none" />
  </g>
</svg>
