<svg xmlns="http://www.w3.org/2000/svg" width="86" height="15" viewBox="0 0 86 15"><g><g><g><path fill="#ce9c53" d="M25.437 11.703l-4.712 2.37.9-5.02-3.813-3.556 5.269-.692 2.356-4.61 2.356 4.61 5.269.692-3.813 3.555.9 5.021z"/></g><g><path fill="#ce9c53" d="M8 11.703l-4.695 2.37.9-5.02L.392 5.496l5.269-.692L8 .195l2.373 4.61 5.269.692-3.813 3.555.9 5.021z"/></g><g><path fill="#ce9c53" d="M42.867 11.703l-4.712 2.37.9-5.02-3.813-3.556 5.269-.692 2.356-4.61 2.356 4.61 5.269.692-3.813 3.555.9 5.021z"/></g><g><path fill="#ce9c53" d="M60.287 11.703l-4.712 2.37.9-5.02-3.813-3.556 5.269-.692 2.356-4.61 2.356 4.61 5.269.692-3.813 3.555.901 5.021z"/></g><g><path fill="#ce9c53" d="M77.717 11.703L73 14.073l.905-5.02-3.813-3.556 5.269-.692 2.356-4.61 2.356 4.61 5.269.692-3.813 3.555.9 5.021z"/></g></g></g></svg>